<svg width="28" height="29" viewBox="0 0 28 29" fill="none" xmlns="http://www.w3.org/2000/svg">
<g clip-path="url(#clip0_0_42)">
<path fill-rule="evenodd" clip-rule="evenodd" d="M27.1174 14.5001C27.1174 21.9722 21.0601 28.0295 13.588 28.0295C6.11592 28.0295 0.0585938 21.9722 0.0585938 14.5001C0.0585938 7.02803 6.11592 0.970703 13.588 0.970703C21.0601 0.970703 27.1174 7.02803 27.1174 14.5001ZM13.8912 10.7404C12.6794 11.2979 10.2577 12.4517 6.62593 14.2019C6.03619 14.4614 5.72725 14.7151 5.69913 14.9633C5.6516 15.3826 6.12638 15.5478 6.77291 15.7726C6.86086 15.8032 6.95198 15.8349 7.04539 15.8685C7.68148 16.0972 8.53713 16.3648 8.98194 16.3754C9.38543 16.385 9.83577 16.201 10.333 15.8234C13.7262 13.2898 15.4779 12.0092 15.5878 11.9816C15.6654 11.9621 15.7729 11.9376 15.8458 12.0092C15.9186 12.0809 15.9115 12.2165 15.9037 12.2529C15.8567 12.4746 13.993 14.3912 13.0286 15.383C12.7279 15.6921 12.5146 15.9115 12.471 15.9616C12.3733 16.0738 12.2738 16.1799 12.1781 16.2819C11.5872 16.912 11.1441 17.3845 12.2027 18.1562C12.7114 18.527 13.1185 18.8336 13.5246 19.1396C13.9681 19.4737 14.4105 19.8069 14.9829 20.2219C15.1287 20.3276 15.268 20.4375 15.4036 20.5444C15.9198 20.9514 16.3835 21.3171 16.9564 21.2588C17.2893 21.2249 17.6332 20.8787 17.8078 19.846C18.2205 17.4056 19.0318 12.1179 19.2192 9.93894C19.2357 9.74804 19.215 9.50372 19.1984 9.39647C19.1818 9.28922 19.1471 9.13641 19.0211 9.02329C18.8718 8.88932 18.6414 8.86107 18.5384 8.86308C18.0698 8.87221 17.3509 9.14871 13.8912 10.7404Z" fill="#505D6B"/>
</g>
<defs>
<clipPath id="clip0_0_42">
<rect width="27.0588" height="27.0588" fill="white" transform="translate(0.0585938 0.970703)"/>
</clipPath>
</defs>
</svg>
