<svg width="28" height="29" viewBox="0 0 28 29" fill="none" xmlns="http://www.w3.org/2000/svg">
<path fill-rule="evenodd" clip-rule="evenodd" d="M0.117188 14.5001C0.117188 7.03969 6.18616 0.970703 13.6466 0.970703C21.107 0.970703 27.176 7.03969 27.176 14.5001C27.176 21.9605 21.107 28.0295 13.6466 28.0295C11.1801 28.0295 8.77444 27.3619 6.67374 26.0964L1.3109 27.7459C1.13085 27.8011 0.933114 27.7543 0.796259 27.6226C0.659404 27.491 0.605807 27.2953 0.655762 27.1121C0.65685 27.1083 0.668386 27.0661 0.688783 26.9914C0.863387 26.3526 1.68734 23.3378 2.16585 21.6613C0.824359 19.5159 0.117188 17.0452 0.117188 14.5001ZM18.5023 15.6458C18.9198 15.9152 19.4919 16.2842 20.1636 16.6522C20.2983 16.7258 20.3715 16.8753 20.3456 17.025C20.0001 19.0721 18.7732 20.104 16.6943 20.104C16.3419 20.104 15.9654 20.0746 15.5639 20.0153C12.0302 19.4923 9.2585 16.2729 8.17866 13.5031C7.19493 10.9794 9.26505 8.89719 9.35352 8.80991C9.40449 8.75998 9.4693 8.72586 9.53956 8.71185C10.2703 8.56817 10.7483 8.60086 10.9605 8.80991C11.1721 9.0186 12.3415 11.0836 12.3415 11.5782C12.3415 12.0581 12.1037 12.4798 11.4437 13.1501C11.5387 13.7018 12.186 14.5118 13.2149 15.3577C14.2226 16.1856 15.2366 16.7542 15.4532 16.7876C15.6407 16.7503 16.2811 16.0559 16.7715 15.33C16.7846 15.3106 16.7999 15.2923 16.817 15.2754C16.9532 15.1396 17.3111 14.9755 17.7833 15.2079C17.9522 15.2916 18.1827 15.4399 18.5016 15.6454L18.5023 15.6458Z" fill="#505D6B"/>
</svg>
