<svg width="42" height="54" viewBox="0 0 42 54" fill="none" xmlns="http://www.w3.org/2000/svg">
<path d="M41.9989 22.2348C41.9989 33.8324 28.2985 53.7339 20.9994 53.7339C13.7004 53.7339 0 33.8324 0 22.2348C0 10.6371 9.40176 1.23535 20.9994 1.23535C32.5971 1.23535 41.9989 10.6371 41.9989 22.2348Z" fill="#505D6B"/>
<path d="M14.266 15.0576C14.5029 12.2539 16.2798 10.477 20.2681 10.477C22.8743 10.477 26.6651 12.2144 29.5083 16.5976V12.4909C27.3759 11.1088 24.1379 9.96363 21.2553 9.96363C14.9767 9.96363 12.7654 13.7545 12.7654 17.032C12.7654 26.9829 30.6139 24.3767 29.5478 32.7481C29.1924 35.7887 26.3887 37.5656 22.6769 37.5656C17.6619 37.5656 13.1208 33.6958 11.0674 29.7865V35.1569C14.029 37.0918 18.2542 38.1974 21.4527 38.1974C27.06 38.1974 31.3247 34.8805 31.3247 30.1814C31.3247 20.7438 13.6342 22.9551 14.266 15.0576Z" fill="white"/>
</svg>
