<svg width="140" height="37" viewBox="0 0 140 37" fill="none" xmlns="http://www.w3.org/2000/svg">
<path d="M4.72676 6.95C5.02676 3.4 7.27676 1.15 12.3268 1.15C15.6268 1.15 20.4268 3.35 24.0268 8.9V3.7C21.3268 1.95 17.2268 0.499998 13.5768 0.499998C5.62676 0.499998 2.82676 5.3 2.82676 9.45C2.82676 22.05 25.4268 18.75 24.0768 29.35C23.6268 33.2 20.0768 35.45 15.3768 35.45C9.02676 35.45 3.27676 30.55 0.676758 25.6V32.4C4.42676 34.85 9.77676 36.25 13.8268 36.25C20.9268 36.25 26.3268 32.05 26.3268 26.1C26.3268 14.15 3.92676 16.95 4.72676 6.95ZM53.5271 29.05C52.7272 30.5 50.0271 34.85 45.1271 35.35C40.0271 35.9 35.8271 33.1 33.9771 27.85C33.1271 25.45 33.0271 22.5 33.6271 19.85H53.2771C52.5771 13.8 46.7271 11.7 42.5271 11.95C37.0271 12.2 29.1271 15.95 29.3771 24.65C29.5771 32.85 36.8771 36.55 43.3771 36.25C49.3271 35.95 52.2772 32.05 53.8772 29.2L53.5271 29.05ZM40.2271 12.5C45.1271 11.6 49.0272 15.1 49.6771 19.45H33.7271C34.6771 16.05 36.8271 13.15 40.2271 12.5ZM57.3896 0.999998V36H61.3396V0.999998H57.3896ZM89.0252 29.05C88.2252 30.5 85.5252 34.85 80.6252 35.35C75.5252 35.9 71.3252 33.1 69.4752 27.85C68.6252 25.45 68.5252 22.5 69.1252 19.85H88.7752C88.0752 13.8 82.2252 11.7 78.0252 11.95C72.5252 12.2 64.6252 15.95 64.8752 24.65C65.0752 32.85 72.3752 36.55 78.8752 36.25C84.8252 35.95 87.7752 32.05 89.3752 29.2L89.0252 29.05ZM75.7252 12.5C80.6252 11.6 84.5252 15.1 85.1752 19.45H69.2252C70.1752 16.05 72.3252 13.15 75.7252 12.5ZM113.888 20.7C113.238 14.75 109.788 11.95 105.688 11.95C99.1877 11.95 97.4877 18.7 96.8377 24.35V12.3H92.8877V36H96.8377V28.6C96.8377 24.4 97.8377 13.9 103.438 12.85C107.738 12 109.588 16.25 109.988 20C110.238 22.55 111.288 34.35 111.438 36H115.438C115.188 34.15 114.388 25.6 113.888 20.7ZM130.4 11.95C126.4 11.95 124 14.05 123.2 16.75L123.55 16.9C124.35 14.25 126.7 12.45 129.95 12.45C133.5 12.45 135.55 15.8 135.55 19.6V24.25C132.45 17.85 117.95 18.35 117.95 28.55C117.95 32.95 122.15 36.25 126.9 36.25C131.95 36.25 134.65 32.65 135.55 29L138.95 36H139.5V20.25C139.5 14.1 134.55 11.95 130.4 11.95ZM128 35.3C124.55 35.3 121.55 32.25 121.55 28.1C121.55 18.3 133.6 19.45 135.55 25.2V26.4C135.35 30.7 132.65 35.3 128 35.3Z" fill="#505D6B"/>
</svg>
