<svg width="89" height="12" viewBox="0 0 89 12" fill="none" xmlns="http://www.w3.org/2000/svg">
<g opacity="0.6">
<mask id="path-1-inside-1_0_169" fill="white">
<path fill-rule="evenodd" clip-rule="evenodd" d="M5.96439 5.37007L4.55942 9.11243L1.617 0.795901H0L3.88345 10.9765H5.15584L6.91868 6.41679L8.66827 10.9765H9.94066L13.8241 0.795901H12.1935L9.26469 9.11243L7.85972 5.37007L9.46346 0.838929H8.07185L6.90543 4.29466L5.75226 0.838929H4.34794L5.96439 5.37007ZM32.5058 6.69632C32.1873 6.23876 31.7374 5.90848 31.2267 5.75723C31.6475 5.55877 31.9982 5.21951 32.2275 4.78933C32.4584 4.36589 32.5796 3.88291 32.5781 3.39125C32.5773 3.07106 32.5257 2.7534 32.4257 2.45205C32.3283 2.14968 32.1825 1.86821 31.995 1.62048C31.8082 1.37569 31.5785 1.17342 31.319 1.0254C31.0454 0.870308 30.7403 0.791432 30.4314 0.795901H25.5804V10.9765H30.0737C30.4554 10.9791 30.8353 10.9187 31.2002 10.7973C31.5343 10.6888 31.8467 10.5137 32.1214 10.281C32.3812 10.0576 32.5936 9.77645 32.7443 9.45656C32.9027 9.1141 32.9823 8.73533 32.9763 8.35246C32.9926 7.75938 32.8272 7.1771 32.5058 6.69632ZM31.3461 8.64645C31.2785 8.82758 31.1795 8.99307 31.0545 9.13401C30.9297 9.27345 30.7812 9.38543 30.617 9.46379C30.446 9.54577 30.2607 9.58731 30.0737 9.58565H27.065V6.47417H30.1665C30.3457 6.47258 30.5228 6.51677 30.6833 6.60314C30.8387 6.68608 30.9764 6.80317 31.0876 6.94691C31.2015 7.09683 31.2911 7.26653 31.3526 7.44882C31.4192 7.6414 31.4529 7.84543 31.4521 8.05101C31.4532 8.2551 31.4172 8.45742 31.3461 8.64645ZM29.8748 2.18687C30.0405 2.18264 30.205 2.2184 30.3563 2.29156C30.5077 2.36473 30.642 2.47345 30.7496 2.60983C30.9858 2.91124 31.1088 3.29755 31.0943 3.69235C31.0966 3.89811 31.0629 4.10249 30.9949 4.29466C30.9328 4.46918 30.838 4.6279 30.7164 4.76077C30.5977 4.88933 30.4586 4.99373 30.3056 5.06898C30.1452 5.14678 29.9711 5.18589 29.7953 5.1836H27.065V2.18687H29.8748ZM45.2633 10.9765V0.795901H43.6723L40.5576 7.01934L37.4428 0.795901H35.8523V10.9765H37.3367V3.64932L40.1467 9.1985H40.9685L43.7652 3.64932V10.9765H45.2633ZM61.3671 10.9765C62.0148 10.9865 62.6582 10.8623 63.2628 10.6108C63.807 10.3823 64.2996 10.0303 64.7074 9.57842C65.1142 9.11809 65.4279 8.57119 65.6286 7.97254C65.8526 7.29908 65.9626 6.5875 65.9534 5.87186C65.9574 5.20176 65.8589 4.53557 65.6618 3.90027C65.4781 3.30366 65.1826 2.7545 64.7936 2.28715C64.3943 1.81697 63.9061 1.4453 63.3622 1.1974C62.7299 0.916937 62.0511 0.780268 61.3679 0.795901H58.0265V10.9765H61.3666H61.3671ZM64.2433 7.33443C64.1212 7.76287 63.9206 8.16032 63.6534 8.50301C63.3885 8.83622 63.0579 9.10084 62.6859 9.27733C62.2696 9.47071 61.8201 9.56603 61.3671 9.55696H59.5109V2.21544H61.3666C61.8124 2.20701 62.2549 2.29989 62.6655 2.48808C63.0342 2.66104 63.3641 2.91776 63.633 3.24083C63.9058 3.57617 64.111 3.96925 64.2357 4.39507C64.3766 4.87235 64.446 5.37096 64.4411 5.87198C64.4454 6.36763 64.3784 6.861 64.2427 7.33443H64.2433ZM70.3268 10.9765V0.795901H68.8418V10.9765H70.3262H70.3268ZM72.8051 10.9765H74.3818L75.3626 8.20915H78.9943L79.9883 10.9765H81.5524L77.8412 0.795901H76.5423L72.8051 10.9765ZM75.6283 7.01899L77.1923 2.64563L78.7032 7.01899H75.6278H75.6283ZM16.1821 0.730347H22.7566V2.15285H16.1821V0.730347ZM16.1821 5.11639H21.9895V6.53889H16.1821V5.11639ZM16.1821 9.50244H22.7566V10.9249H16.1821V9.50244ZM48.7259 0.730347H55.3004V2.15285H48.7259V0.730347ZM48.7259 5.11639H54.5334V6.53889H48.7259V5.11639ZM48.7259 9.50244H55.3004V10.9249H48.7259V9.50244Z"/>
</mask>
<path fill-rule="evenodd" clip-rule="evenodd" d="M5.96439 5.37007L4.55942 9.11243L1.617 0.795901H0L3.88345 10.9765H5.15584L6.91868 6.41679L8.66827 10.9765H9.94066L13.8241 0.795901H12.1935L9.26469 9.11243L7.85972 5.37007L9.46346 0.838929H8.07185L6.90543 4.29466L5.75226 0.838929H4.34794L5.96439 5.37007ZM32.5058 6.69632C32.1873 6.23876 31.7374 5.90848 31.2267 5.75723C31.6475 5.55877 31.9982 5.21951 32.2275 4.78933C32.4584 4.36589 32.5796 3.88291 32.5781 3.39125C32.5773 3.07106 32.5257 2.7534 32.4257 2.45205C32.3283 2.14968 32.1825 1.86821 31.995 1.62048C31.8082 1.37569 31.5785 1.17342 31.319 1.0254C31.0454 0.870308 30.7403 0.791432 30.4314 0.795901H25.5804V10.9765H30.0737C30.4554 10.9791 30.8353 10.9187 31.2002 10.7973C31.5343 10.6888 31.8467 10.5137 32.1214 10.281C32.3812 10.0576 32.5936 9.77645 32.7443 9.45656C32.9027 9.1141 32.9823 8.73533 32.9763 8.35246C32.9926 7.75938 32.8272 7.1771 32.5058 6.69632ZM31.3461 8.64645C31.2785 8.82758 31.1795 8.99307 31.0545 9.13401C30.9297 9.27345 30.7812 9.38543 30.617 9.46379C30.446 9.54577 30.2607 9.58731 30.0737 9.58565H27.065V6.47417H30.1665C30.3457 6.47258 30.5228 6.51677 30.6833 6.60314C30.8387 6.68608 30.9764 6.80317 31.0876 6.94691C31.2015 7.09683 31.2911 7.26653 31.3526 7.44882C31.4192 7.6414 31.4529 7.84543 31.4521 8.05101C31.4532 8.2551 31.4172 8.45742 31.3461 8.64645ZM29.8748 2.18687C30.0405 2.18264 30.205 2.2184 30.3563 2.29156C30.5077 2.36473 30.642 2.47345 30.7496 2.60983C30.9858 2.91124 31.1088 3.29755 31.0943 3.69235C31.0966 3.89811 31.0629 4.10249 30.9949 4.29466C30.9328 4.46918 30.838 4.6279 30.7164 4.76077C30.5977 4.88933 30.4586 4.99373 30.3056 5.06898C30.1452 5.14678 29.9711 5.18589 29.7953 5.1836H27.065V2.18687H29.8748ZM45.2633 10.9765V0.795901H43.6723L40.5576 7.01934L37.4428 0.795901H35.8523V10.9765H37.3367V3.64932L40.1467 9.1985H40.9685L43.7652 3.64932V10.9765H45.2633ZM61.3671 10.9765C62.0148 10.9865 62.6582 10.8623 63.2628 10.6108C63.807 10.3823 64.2996 10.0303 64.7074 9.57842C65.1142 9.11809 65.4279 8.57119 65.6286 7.97254C65.8526 7.29908 65.9626 6.5875 65.9534 5.87186C65.9574 5.20176 65.8589 4.53557 65.6618 3.90027C65.4781 3.30366 65.1826 2.7545 64.7936 2.28715C64.3943 1.81697 63.9061 1.4453 63.3622 1.1974C62.7299 0.916937 62.0511 0.780268 61.3679 0.795901H58.0265V10.9765H61.3666H61.3671ZM64.2433 7.33443C64.1212 7.76287 63.9206 8.16032 63.6534 8.50301C63.3885 8.83622 63.0579 9.10084 62.6859 9.27733C62.2696 9.47071 61.8201 9.56603 61.3671 9.55696H59.5109V2.21544H61.3666C61.8124 2.20701 62.2549 2.29989 62.6655 2.48808C63.0342 2.66104 63.3641 2.91776 63.633 3.24083C63.9058 3.57617 64.111 3.96925 64.2357 4.39507C64.3766 4.87235 64.446 5.37096 64.4411 5.87198C64.4454 6.36763 64.3784 6.861 64.2427 7.33443H64.2433ZM70.3268 10.9765V0.795901H68.8418V10.9765H70.3262H70.3268ZM72.8051 10.9765H74.3818L75.3626 8.20915H78.9943L79.9883 10.9765H81.5524L77.8412 0.795901H76.5423L72.8051 10.9765ZM75.6283 7.01899L77.1923 2.64563L78.7032 7.01899H75.6278H75.6283ZM16.1821 0.730347H22.7566V2.15285H16.1821V0.730347ZM16.1821 5.11639H21.9895V6.53889H16.1821V5.11639ZM16.1821 9.50244H22.7566V10.9249H16.1821V9.50244ZM48.7259 0.730347H55.3004V2.15285H48.7259V0.730347ZM48.7259 5.11639H54.5334V6.53889H48.7259V5.11639ZM48.7259 9.50244H55.3004V10.9249H48.7259V9.50244Z" fill="#121213" stroke="white" stroke-width="2" mask="url(#path-1-inside-1_0_169)"/>
</g>
<path fill-rule="evenodd" clip-rule="evenodd" d="M5.96439 5.37007L4.55942 9.11243L1.617 0.795901H0L3.88345 10.9765H5.15584L6.91868 6.41679L8.66827 10.9765H9.94066L13.8241 0.795901H12.1935L9.26469 9.11243L7.85972 5.37007L9.46346 0.838929H8.07185L6.90543 4.29466L5.75226 0.838929H4.34794L5.96439 5.37007ZM32.5058 6.69632C32.1873 6.23876 31.7374 5.90848 31.2267 5.75723C31.6475 5.55877 31.9982 5.21951 32.2275 4.78933C32.4584 4.36589 32.5796 3.88291 32.5781 3.39125C32.5773 3.07106 32.5257 2.7534 32.4257 2.45205C32.3283 2.14968 32.1825 1.86821 31.995 1.62048C31.8082 1.37569 31.5785 1.17342 31.319 1.0254C31.0454 0.870308 30.7403 0.791432 30.4314 0.795901H25.5804V10.9765H30.0737C30.4554 10.9791 30.8353 10.9187 31.2002 10.7973C31.5343 10.6888 31.8467 10.5137 32.1214 10.281C32.3812 10.0576 32.5936 9.77645 32.7443 9.45656C32.9027 9.1141 32.9823 8.73533 32.9763 8.35246C32.9926 7.75938 32.8272 7.1771 32.5058 6.69632ZM31.3461 8.64645C31.2785 8.82758 31.1795 8.99307 31.0545 9.13401C30.9297 9.27345 30.7812 9.38543 30.617 9.46379C30.446 9.54577 30.2607 9.58731 30.0737 9.58565H27.065V6.47417H30.1665C30.3457 6.47258 30.5228 6.51677 30.6833 6.60314C30.8387 6.68608 30.9764 6.80317 31.0876 6.94691C31.2015 7.09683 31.2911 7.26653 31.3526 7.44882C31.4192 7.6414 31.4529 7.84543 31.4521 8.05101C31.4532 8.2551 31.4172 8.45742 31.3461 8.64645ZM29.8748 2.18687C30.0405 2.18264 30.205 2.2184 30.3563 2.29156C30.5077 2.36473 30.642 2.47345 30.7496 2.60983C30.9858 2.91124 31.1088 3.29755 31.0943 3.69235C31.0966 3.89811 31.0629 4.10249 30.9949 4.29466C30.9328 4.46918 30.838 4.6279 30.7164 4.76077C30.5977 4.88933 30.4586 4.99373 30.3056 5.06898C30.1452 5.14678 29.9711 5.18589 29.7953 5.1836H27.065V2.18687H29.8748ZM45.2633 10.9765V0.795901H43.6723L40.5576 7.01934L37.4428 0.795901H35.8523V10.9765H37.3367V3.64932L40.1467 9.1985H40.9685L43.7652 3.64932V10.9765H45.2633ZM61.3671 10.9765C62.0148 10.9865 62.6582 10.8623 63.2628 10.6108C63.807 10.3823 64.2996 10.0303 64.7074 9.57842C65.1142 9.11809 65.4279 8.57119 65.6286 7.97254C65.8526 7.29908 65.9626 6.5875 65.9534 5.87186C65.9574 5.20176 65.8589 4.53557 65.6618 3.90027C65.4781 3.30366 65.1826 2.7545 64.7936 2.28715C64.3943 1.81697 63.9061 1.4453 63.3622 1.1974C62.7299 0.916937 62.0511 0.780268 61.3679 0.795901H58.0265V10.9765H61.3671ZM64.2433 7.33443C64.1212 7.76287 63.9206 8.16032 63.6534 8.50301C63.3885 8.83622 63.0579 9.10084 62.6859 9.27733C62.2696 9.47071 61.8201 9.56603 61.3671 9.55696H59.5109V2.21544H61.3666C61.8124 2.20701 62.2549 2.29989 62.6655 2.48808C63.0342 2.66104 63.3641 2.91776 63.633 3.24083C63.9058 3.57617 64.111 3.96925 64.2357 4.39507C64.3766 4.87235 64.446 5.37096 64.4411 5.87198C64.4454 6.36763 64.379 6.861 64.2433 7.33443ZM70.3268 10.9765V0.795901H68.8418V10.9765H70.3268ZM72.8051 10.9765H74.3818L75.3626 8.20915H78.9943L79.9883 10.9765H81.5524L77.8412 0.795901H76.5423L72.8051 10.9765ZM75.6283 7.01899L77.1923 2.64563L78.7032 7.01899H75.6283ZM16.1821 0.730347H22.7566V2.15285H16.1821V0.730347ZM16.1821 5.11639H21.9895V6.53889H16.1821V5.11639ZM16.1821 9.50244H22.7566V10.9249H16.1821V9.50244ZM48.7259 0.730347H55.3004V2.15285H48.7259V0.730347ZM48.7259 5.11639H54.5334V6.53889H48.7259V5.11639ZM48.7259 9.50244H55.3004V10.9249H48.7259V9.50244Z" fill="#33504E"/>
<rect x="86.6582" y="8.92761" width="2.34211" height="2.34211" fill="#FF0000"/>
</svg>
