<svg width="28" height="29" viewBox="0 0 28 29" fill="none" xmlns="http://www.w3.org/2000/svg">
<path fill-rule="evenodd" clip-rule="evenodd" d="M27.0588 14.5001C27.0588 21.9722 21.0015 28.0295 13.5294 28.0295C6.05732 28.0295 0 21.9722 0 14.5001C0 7.02803 6.05732 0.970703 13.5294 0.970703C21.0015 0.970703 27.0588 7.02803 27.0588 14.5001ZM12.6985 13.6258L6.7821 10.0633C7.14863 9.60615 7.71177 9.31348 8.34326 9.31348H18.3433C19.0706 9.31348 19.7072 9.70171 20.0573 10.2823L14.029 13.6476C13.6137 13.8795 13.106 13.8712 12.6985 13.6258ZM14.7602 14.9574L20.3433 11.8405V17.6076C20.3433 18.7122 19.4478 19.6076 18.3433 19.6076H8.34326C7.23869 19.6076 6.34326 18.7122 6.34326 17.6076V11.55L11.9248 14.9108C12.7932 15.4337 13.8751 15.4515 14.7602 14.9574Z" fill="#505D6B"/>
</svg>
